<?xml version="1.0" encoding="utf-8"?>
<!-- Generator: Adobe Illustrator 25.0.1, SVG Export Plug-In . SVG Version: 6.00 Build 0)  -->
<svg version="1.1" id="Layer_1" xmlns="http://www.w3.org/2000/svg" xmlns:xlink="http://www.w3.org/1999/xlink" x="0px" y="0px"
	 width="52px" height="17px" viewBox="0 0 52 17" style="enable-background:new 0 0 52 17;" xml:space="preserve">
<path d="M31.7,4.9c-0.8,0-1.5,0.2-2.2,0.5c0-1.9,0-3.7,0.1-4.2l-4,0.7v0.4L26,2.3c0.5,0.1,0.7,0.4,0.8,1.1c0.1,1.4,0.1,9.1,0,10.3
	c1.1,0.3,2.2,0.4,3.4,0.4c2.6,0.2,4.9-1.7,5.1-4.3c0-0.3,0-0.5,0-0.8C35.3,6.7,33.7,4.9,31.7,4.9z M13.9,4.8c3,0,4.5,2,4.5,4.7
	c0.1,2.5-1.7,4.6-4.2,4.7c-0.1,0-0.3,0-0.4,0c-3,0-4.5-2-4.5-4.7C9.1,7,11,4.9,13.5,4.8C13.6,4.8,13.8,4.8,13.9,4.8z M40.6,4.8
	c2.5,0,3.7,1.9,3.7,4.3h-5.6c-0.1,2.2,1,3.8,3.2,3.8c0.7,0,1.4-0.2,2-0.7l0.2,0.3c-1.6,2-4.5,2.3-6.5,0.6C36.6,12.3,36,11,36,9.6
	c-0.2-2.5,1.7-4.6,4.2-4.8C40.4,4.8,40.5,4.8,40.6,4.8z M48.7,4.8c0.9,0,1.9,0.1,2.8,0.5l0,0l0.1,2.3l-0.4,0.1
	c-0.5-1.6-1.3-2.3-2.3-2.3c-0.7,0-1.3,0.5-1.3,1.2c0,0,0,0.1,0,0.1c0,0.8,0.6,1.2,2.3,1.8S52,9.9,52,11.2c0,1.9-1.5,3.1-3.8,3.1
	c-1.1,0-2.2-0.2-3.2-0.5l0,0l-0.1-2.6l0.4-0.1c0.6,1.8,1.5,2.4,2.6,2.4c0.8,0.1,1.4-0.5,1.5-1.3c0,0,0-0.1,0-0.1
	c0-0.7-0.4-1.1-1.9-1.7s-2.5-1.1-2.5-2.7S46.5,4.8,48.7,4.8z M10.5,1.5L10.6,5L10,5.2C9.4,3.4,8.5,2.4,6.9,2.4H4.8
	C4.8,3.5,4.7,5.4,4.7,7.4l0,0l1.4-0.1c0.9,0,1.3-0.7,1.5-1.7h0.5v4.2H7.7c-0.2-1-0.6-1.7-1.5-1.7l0,0L4.7,8.1c0,1.6,0.1,2.8,0.1,3.6
	C5,12.8,5.3,13.3,6,13.4l0,0l0.7,0.1V14H0v-0.5l0.6-0.1c0.8-0.1,1.1-0.6,1.2-1.7c0.2-2.6,0.2-5.3,0-7.9C1.7,2.6,1.4,2.2,0.6,2l0,0H0
	V1.5H10.5z M22.4,6.9c1-2.2,2.8-2.4,3.8-1.8l0,0l-1,2.5c-0.8-0.6-2-0.6-2.8,0c-0.1,1.6-0.1,3.2,0.1,4.8c0.1,0.7,0.2,1.1,0.8,1.1l0,0
	l0.7,0.1V14h-5.5v-0.5l0.4-0.1c0.5-0.1,0.8-0.4,0.8-1.1c0.1-1.7,0.1-3.5,0-5.2C19.7,6.3,19.4,6,18.9,6l0,0l-0.4-0.1V5.6l4-0.8
	L22.4,6.9z M13.8,5.4c-1.3,0-1.7,1.8-1.7,4.1s0.6,4.1,1.8,4.1c1.4,0,1.7-1.8,1.7-4.1S15,5.4,13.8,5.4z M30.4,5.9c1.3,0,2,1.6,2,3.5
	c0,2.4-0.9,4.2-2.1,4.2c-0.2,0-0.5,0-0.7-0.1c0-0.6-0.1-2.3-0.1-4.3V8.6c0-0.8,0-1.7,0-2.5C29.8,5.9,30.1,5.9,30.4,5.9z M40.4,5.4
	c-1,0-1.5,1.7-1.6,3l2.8-0.1C41.6,7.2,41.4,5.4,40.4,5.4L40.4,5.4z"/>
</svg>
