<svg id="Layer_1" data-name="Layer 1" xmlns="http://www.w3.org/2000/svg" viewBox="0 0 47 17"><title>masthead-guardian</title><path d="M10.64,8.08l.8-.42V1.33h-.6l-1.49,2H9.18l.1-2.19h6.44l.09,2.19h-.17l-1.46-2h-.62V7.64l.81.43v.21H10.64Zm5.82-.28-.53.29V8.3h3V8.09l-.52-.28V3.59a1.22,1.22,0,0,1,.78-.26c.47,0,.72.23.72.8V7.8l-.54.28V8.3h3V8.08l-.53-.28V4.14c0-1-.44-1.6-1.43-1.6a3.06,3.06,0,0,0-1.93.72l-.06.06V0H18.1L15.84.41V.54l.62.25ZM24,5.64h3.42v0c0-2.13-.84-2.94-2.46-2.94a2.64,2.64,0,0,0-2.79,2.91,2.59,2.59,0,0,0,2.88,2.89,2.76,2.76,0,0,0,2.17-1V7.21a2.89,2.89,0,0,1-1.41.49C24.59,7.7,24.07,6.8,24,5.64Zm1.64-.37L24,5.38c0-1.39.41-2.49.94-2.49S25.65,3.84,25.65,5.27ZM4.27,7a6.84,6.84,0,0,1,2.36.37l0,2.13H6.46L5.14,7.39a1.9,1.9,0,0,0-.84-.14c-1.2,0-1.81,1.38-1.79,3.65,0,2.71.5,3.94,1.59,3.94a1.79,1.79,0,0,0,.66-.11v-2.9L4,11.41v-.24h3.5v.26l-.72.4v2.86a7.82,7.82,0,0,1-2.64.45C1.62,15.14,0,14,0,11.09,0,8,2,7,4.27,7ZM7.42,9.67V9.49l2.35-.41.26,0v4.64c0,.56.27.73.72.73a1,1,0,0,0,.76-.36V10l-.64-.28V9.48l2.35-.41.24,0v5.32l.63.27v.16l-2.32.29-.24,0v-.7h-.06a2.59,2.59,0,0,1-1.76.74,1.5,1.5,0,0,1-1.65-1.68V10Zm9.79,1.92v-.77c0-1.16-.25-1.54-1-1.54L16,9.3,14.72,11h-.18V9.44a6.83,6.83,0,0,1,2.14-.37c1.56,0,2.47.43,2.47,1.74v3.76l.56.15v.15a2.35,2.35,0,0,1-1.15.26c-.77,0-1.14-.25-1.31-.67H17.2a1.74,1.74,0,0,1-1.52.69,1.47,1.47,0,0,1-1.57-1.58c0-1,.61-1.5,1.83-1.73Zm0,.28-.39,0c-.61,0-.84.44-.84,1.31s.31,1.18.74,1.18a.57.57,0,0,0,.49-.2Zm5.09-2.8.19,0v1.72h.05c.25-1.26.81-1.73,1.49-1.73a.85.85,0,0,1,.29,0v1.76a1.72,1.72,0,0,0-.49-.05,3,3,0,0,0-1.28.26v3.39l.54.3V15H20v-.22l.55-.3V9.85l-.65-.19V9.5ZM28.21,7.4l-.65-.23V7l2.38-.44.22,0v7.79l.66.23v.2l-2.34.32-.19,0V14.5h-.05a2.12,2.12,0,0,1-1.56.65c-1.28,0-2.22-1-2.22-3S25.55,9,27.2,9a2.32,2.32,0,0,1,1,.18Zm0,2.14a.92.92,0,0,0-.65-.2c-.63,0-1,1-1,2.69,0,1.54.28,2.4,1.13,2.37a.79.79,0,0,0,.54-.21Zm5.23-.48.21,0v5.4l.53.3V15H31.12v-.22l.55-.3V9.94L31,9.68V9.5ZM32.6,8.6a1,1,0,1,1,0-2,1,1,0,1,1,0,2Zm4.76,3v-.77c0-1.16-.26-1.54-1-1.54l-.24,0L34.86,11h-.18V9.44a6.9,6.9,0,0,1,2.15-.37c1.56,0,2.47.43,2.47,1.74v3.76l.56.15v.15a2.38,2.38,0,0,1-1.15.26c-.77,0-1.14-.25-1.31-.67h-.06a1.73,1.73,0,0,1-1.52.69,1.46,1.46,0,0,1-1.56-1.58c0-1,.6-1.5,1.83-1.73Zm0,.28-.4,0c-.61,0-.83.44-.83,1.31s.31,1.18.74,1.18a.58.58,0,0,0,.49-.2Zm3.38,2.61V9.89l-.64-.23V9.44L42.44,9l.24,0v.69h.06a3.11,3.11,0,0,1,2-.74c1,0,1.47.48,1.47,1.56v3.94l.55.31V15h-3v-.22l.55-.3V10.64c0-.6-.26-.83-.74-.83a1.32,1.32,0,0,0-.81.25v4.42l.54.3V15H40.19v-.22Z"/></svg>