<svg id="Layer_1" data-name="Layer 1" xmlns="http://www.w3.org/2000/svg" viewBox="0 0 81 17"><title>masthead-newsweek</title><path d="M2.8,6.13v4.58h.93V13H0V10.71H.67V4.14H0V2H4.4L7.86,8.43V4.14H6.93V2h3.73V4.14H10V13H6.4Zm16.45,3.7c-.72,2.27-1.68,3.46-4.5,3.46a4.69,4.69,0,0,1-3.2-1.15A4.22,4.22,0,0,1,10.37,9a4.08,4.08,0,0,1,1.18-3,4.29,4.29,0,0,1,3.2-1.13,4.41,4.41,0,0,1,3.33,1A4.4,4.4,0,0,1,19.15,9v.43H13.82a2.93,2.93,0,0,0,.28,1.28,1.24,1.24,0,0,0,1.2.57,1.64,1.64,0,0,0,.78-.29,1.58,1.58,0,0,0,.4-1.16ZM13.89,8.14h2V8a1.19,1.19,0,0,0-.27-.86.81.81,0,0,0-.68-.29c-.4,0-.55,0-.79.29a1.27,1.27,0,0,0-.26.86Zm18.55-.86L30.16,13H27.51L26,9l-1.46,4H21.91L19.5,7.28H19V5h4.8V7.28h-.55l.68,2.44.83-2.44H24.1V5h5.39V7.28h-.62l.77,2.44.8-2.44h-.63V5h3.28V6.25a2.92,2.92,0,0,1,.5-.69,2.88,2.88,0,0,1,2-.7A5.42,5.42,0,0,1,36.92,5,2.46,2.46,0,0,1,38,5.56V5h2.26V7.57H38a1.88,1.88,0,0,0-.67-.72,2.18,2.18,0,0,0-.93-.28c-.27,0-.48,0-.54.14s-.26.28-.26.43.19.21.26.29a8.52,8.52,0,0,0,.94.28l1.2.43A5.38,5.38,0,0,1,39.85,9a2.74,2.74,0,0,1,.67,1.56,2.51,2.51,0,0,1-.8,2,2.81,2.81,0,0,1-2,.6A3.8,3.8,0,0,1,36.39,13a5.5,5.5,0,0,1-1.2-.57V13h-2.4V10.42h2.4a1.69,1.69,0,0,0,.66.86,2,2,0,0,0,.94.29,1.25,1.25,0,0,0,.53-.15.6.6,0,0,0,.27-.43c0-.28-.48-.44-1.07-.57-.08,0-.24-.13-.27-.13L34.92,10a3.58,3.58,0,0,1-1.6-1,2.28,2.28,0,0,1-.53-1.57.76.76,0,0,1,0-.15ZM43.52,13,41.13,7.28h-.55V5h4.79V7.28h-.52l.66,2.44.83-2.44h-.62V5H51V7.28h-.53l.79,2.45L52,7.28h-.71V5h3.38V7.28H54L51.78,13H49.11L47.65,9l-1.47,4ZM63.21,9.85c-.71,2.26-1.57,3.44-4.42,3.44a4.65,4.65,0,0,1-3.2-1.15A4.24,4.24,0,0,1,54.39,9a4.34,4.34,0,0,1,1.2-3,4.59,4.59,0,0,1,3.2-1.13,4.67,4.67,0,0,1,3.33,1A4.72,4.72,0,0,1,63.19,9v.43H57.86a4,4,0,0,0,.28,1.28c.11.34.65.57,1.18.57a1.64,1.64,0,0,0,.8-.29c.13-.08.61-.73.43-1.16ZM57.93,8.14h2V8a1.51,1.51,0,0,0-.26-.86A1,1,0,0,0,59,6.85a1,1,0,0,0-.8.29,2,2,0,0,0-.25.86ZM72.16,9.85c-.67,2.26-1.54,3.44-4.37,3.44a4.59,4.59,0,0,1-3.18-1.15A4.24,4.24,0,0,1,63.41,9a4.32,4.32,0,0,1,1.2-3,4.53,4.53,0,0,1,3.18-1.13,4.8,4.8,0,0,1,3.35,1,5,5,0,0,1,1,3.15v.43H66.86a4.08,4.08,0,0,0,.28,1.28c.08.33.65.57,1.2.57a1.43,1.43,0,0,0,.8-.29c.16-.11.61-.67.4-1.14ZM66.93,8.14h2V8a1.59,1.59,0,0,0-.27-.86A1,1,0,0,0,68,6.85a1,1,0,0,0-.79.29,1.94,1.94,0,0,0-.27.86Zm8.66,2.08v.47h.63V13h-4V10.71h.52V4.14h-.49V2h3.34V8.44l1.67-1.16h-.75V5h4.36V7.28H80L79,8l1.2,2.71h.66V13h-4.4V10.69h.69l-.5-1.2Z"/></svg>